C:\Users\tech\Desktop\Cuda>ffmpeg -hwaccel cuda -hwaccel_output_format cuda -i "input.mov" -vf "scale_cuda=format=yuv444p16le,hwdownload,format=yuv444p16le,eq=contrast=1.1:brightness=0.02:saturation=1.1" -c:v hevc_nvenc -pix_fmt yuv444p10le -preset p7 -tune hq -b:v 150M -maxrate 150M -bufsize 150M -rc cbr -profile:v main10 -colorspace bt2020nc -color_primaries bt2020 -color_trc smpte2084 "enhanced_output_10bit444.mp4"
ffmpeg version 2025-10-09-git-469aad3897-full_build-www.gyan.dev Copyright (c) 2000-2025 the FFmpeg developers
  built with gcc 15.2.0 (Rev8, Built by MSYS2 project)
  configuration: --enable-gpl --enable-version3 --enable-static --disable-w32threads --disable-autodetect --enable-fontconfig --enable-iconv --enable-gnutls --enable-lcms2 --enable-libxml2 --enable-gmp --enable-bzlib --enable-lzma --enable-libsnappy --enable-zlib --enable-librist --enable-libsrt --enable-libssh --enable-libzmq --enable-avisynth --enable-libbluray --enable-libcaca --enable-libdvdnav --enable-libdvdread --enable-sdl2 --enable-libaribb24 --enable-libaribcaption --enable-libdav1d --enable-libdavs2 --enable-libopenjpeg --enable-libquirc --enable-libuavs3d --enable-libxevd --enable-libzvbi --enable-liboapv --enable-libqrencode --enable-librav1e --enable-libsvtav1 --enable-libvvenc --enable-libwebp --enable-libx264 --enable-libx265 --enable-libxavs2 --enable-libxeve --enable-libxvid --enable-libaom --enable-libjxl --enable-libvpx --enable-mediafoundation --enable-libass --enable-frei0r --enable-libfreetype --enable-libfribidi --enable-libharfbuzz --enable-liblensfun --enable-libvidstab --enable-libvmaf --enable-libzimg --enable-amf --enable-cuda-llvm --enable-cuvid --enable-dxva2 --enable-d3d11va --enable-d3d12va --enable-ffnvcodec --enable-libvpl --enable-nvdec --enable-nvenc --enable-vaapi --enable-libshaderc --enable-vulkan --enable-libplacebo --enable-opencl --enable-libcdio --enable-openal --enable-libgme --enable-libmodplug --enable-libopenmpt --enable-libopencore-amrwb --enable-libmp3lame --enable-libshine --enable-libtheora --enable-libtwolame --enable-libvo-amrwbenc --enable-libcodec2 --enable-libilbc --enable-libgsm --enable-liblc3 --enable-libopencore-amrnb --enable-libopus --enable-libspeex --enable-libvorbis --enable-ladspa --enable-libbs2b --enable-libflite --enable-libmysofa --enable-librubberband --enable-libsoxr --enable-chromaprint --enable-whisper
  libavutil      60. 13.100 / 60. 13.100
  libavcodec     62. 16.100 / 62. 16.100
  libavformat    62.  6.101 / 62.  6.101
  libavdevice    62.  2.100 / 62.  2.100
  libavfilter    11.  9.100 / 11.  9.100
  libswscale      9.  3.100 /  9.  3.100
  libswresample   6.  2.100 /  6.  2.100
Input #0, mov,mp4,m4a,3gp,3g2,mj2, from 'input.mov':
  Metadata:
    major_brand     : qt
    minor_version   : 512
    compatible_brands: qt
    creation_time   : 2025-11-03T15:18:32.000000Z
    encoder         : Blackmagic Design DaVinci Resolve Studio
  Duration: 00:02:07.78, start: 0.000000, bitrate: 259839 kb/s
  Stream #0:0[0x1]: Video: hevc (Rext) (hvc1 / 0x31637668), yuv444p10le(pc, bt709, progressive), 3840x2160 [SAR 1:1 DAR 16:9], 256762 kb/s, 60 fps, 60 tbr, 15360 tbn (default)
    Metadata:
      creation_time   : 2025-11-03T15:18:32.000000Z
      handler_name    : VideoHandler
      vendor_id       :
      encoder         : H.265 4:4:4 10-bit - NVIDIA
      timecode        : 01:00:00:00
  Stream #0:1[0x2]: Audio: pcm_s32le (lpcm / 0x6D63706C), 48000 Hz, stereo, s32, 3072 kb/s (default)
    Metadata:
      creation_time   : 2025-11-03T15:18:32.000000Z
      handler_name    : SoundHandler
      vendor_id       : [0][0][0][0]
  Stream #0:2[0x3](eng): Data: none (tmcd / 0x64636D74) (default)
    Metadata:
      creation_time   : 2025-11-03T15:18:32.000000Z
      handler_name    : TimeCodeHandler
      timecode        : 01:00:00:00
Incompatible pixel format 'yuv444p10le' for codec 'hevc_nvenc', auto-selecting format 'yuv444p10msble'
File 'enhanced_output_10bit444.mp4' already exists. Overwrite? [y/N] y
Stream mapping:
  Stream #0:0 -> #0:0 (hevc (native) -> hevc (hevc_nvenc))
  Stream #0:1 -> #0:1 (pcm_s32le (native) -> aac (native))
Press [q] to stop, [?] for help
Output #0, mp4, to 'enhanced_output_10bit444.mp4':
  Metadata:
    major_brand     : qt
    minor_version   : 512
    compatible_brands: qt
    encoder         : Lavf62.6.101
  Stream #0:0: Video: hevc (Rext) (hev1 / 0x31766568), yuv444p10msble(pc, bt2020nc/bt709/bt709, progressive), 3840x2160 [SAR 1:1 DAR 16:9], q=2-31, 150000 kb/s, 60 fps, 15360 tbn (default)
    Metadata:
      encoder         : Lavc62.16.100 hevc_nvenc
      creation_time   : 2025-11-03T15:18:32.000000Z
      handler_name    : VideoHandler
      vendor_id       :
      timecode        : 01:00:00:00
    Side data:
      CPB properties: bitrate max/min/avg: 150000000/0/150000000 buffer size: 150000000 vbv_delay: N/A
  Stream #0:1: Audio: aac (LC) (mp4a / 0x6134706D), 48000 Hz, stereo, fltp, 128 kb/s (default)
    Metadata:
      encoder         : Lavc62.16.100 aac
      creation_time   : 2025-11-03T15:18:32.000000Z
      handler_name    : SoundHandler
      vendor_id       : [0][0][0][0]
frame=    5 fps=0.6 q=13.0 size=    2560KiB time=00:00:00.03 bitrate=629163.4kbits/s speed=0.0038x elapsed=0:00:08.77
frame=   12 fps=1.3 q=15.0 size=    5888KiB time=00:00:00.15 bitrate=321565.9kbits/s speed=0.0162x elapsed=0:00:09.27
frame=   18 fps=1.8 q=11.0 size=    7680KiB time=00:00:00.25 bitrate=251659.8kbits/s speed=0.0255x elapsed=0:00:09.79
frame=   25 fps=2.4 q=16.0 size=   10240KiB time=00:00:00.36 bitrate=228781.1kbits/s speed=0.0355x elapsed=0:00:10.32
frame=   32 fps=2.9 q=17.0 size=   12544KiB time=00:00:00.48 bitrate=212608.8kbits/s speed=0.0445x elapsed=0:00:10.85
frame=   38 fps=3.3 q=13.0 size=   14080KiB time=00:00:00.58 bitrate=197732.2kbits/s speed=0.0513x elapsed=0:00:11.37
frame=   45 fps=3.8 q=17.0 size=   16384KiB time=00:00:00.70 bitrate=191740.2kbits/s speed=0.0588x elapsed=0:00:11.90
frame=   52 fps=4.2 q=17.0 size=   18432KiB time=00:00:00.81 bitrate=184892.2kbits/s speed=0.0658x elapsed=0:00:12.41
frame=   58 fps=4.5 q=13.0 size=   19968KiB time=00:00:00.91 bitrate=178448.9kbits/s speed=0.0709x elapsed=0:00:12.92
frame= 2559 fps= 12 q=18.0 size=  784896KiB time=00:00:42.60 bitrate=150935.9kbits/s speed=0.203x elapsed=0:03:29.52    s/s speed=0.203x elapsed=0:03:13.41
frame=   70 fps=5.0 q=13.0 size=   23808KiB time=00:00:01.11 bitrate=174658.6kbits/s speed=0.0799x elapsed=0:00:13.96
frame=   77 fps=5.3 q=17.0 size=   26112KiB time=00:00:01.23 bitrate=173440.5kbits/s speed=0.0851x elapsed=0:00:14.49
frame=   82 fps=5.5 q=13.0 size=   27392KiB time=00:00:01.31 bitrate=170427.0kbits/s speed=0.0878x elapsed=0:00:15.00
frame=   88 fps=5.7 q=17.0 size=   29696KiB time=00:00:01.41 bitrate=171720.0kbits/s speed=0.0913x elapsed=0:00:15.51   frame=   95 fps=5.9 q=15.0 size=   31744KiB time=00:00:01.53 bitrate=169596.1kbits/s speed=0.0956x elapsed=0:00:16.03   frame,hwdownload,format=yuv444p16le,eq=contrast=1.1:brightness=0.02:saturation=1.1" -c:v hevc_nvenc -pix_fmt yuv444p10le -preset p7 -tune hq -b:v 260M -maxrate 260M -bufsize 260M -rc cbr -profile:v main10 -colorspace bt2020nc -color_primaries bt2020 -color_trc smpte2084 "enhanced_output_10bit444.mp4" B global headers:0KiB muxing overhead: 0.008559%
frame= 7667 fps= 13 q=19.0 Lsize= 2344661KiB time=00:02:07.73 bitrate=150371.6kbits/s speed=0.21x elapsed=0:10:08.77
[aac @ 0000017ef13d5bc0] Qavg: 831.910

C:\Users\tech\Desktop\Cuda>ffmpeg -hwaccel cuda -hwaccel_output_format cuda -i "input.mov" -vf "scale_cuda=format=yuv444p16le,hwdownload,format=yuv444p16le,eq=contrast=1.1:brightness=0.02:saturation=1.1" -c:v hevc_nvenc -pix_fmt yuv444p10le -preset p7 -tune hq -b:v 260M -maxrate 260M -bufsize 260M -rc cbr -profile:v main10 -colorspace bt2020nc -color_primaries bt2020 -color_trc smpte2084 "enhanced_output_10bit444.mp4"
ffmpeg version 2025-10-09-git-469aad3897-full_build-www.gyan.dev Copyright (c) 2000-2025 the FFmpeg developers
  built with gcc 15.2.0 (Rev8, Built by MSYS2 project)
  configuration: --enable-gpl --enable-version3 --enable-static --disable-w32threads --disable-autodetect --enable-fontconfig --enable-iconv --enable-gnutls --enable-lcms2 --enable-libxml2 --enable-gmp --enable-bzlib --enable-lzma --enable-libsnappy --enable-zlib --enable-librist --enable-libsrt --enable-libssh --enable-libzmq --enable-avisynth --enable-libbluray --enable-libcaca --enable-libdvdnav --enable-libdvdread --enable-sdl2 --enable-libaribb24 --enable-libaribcaption --enable-libdav1d --enable-libdavs2 --enable-libopenjpeg --enable-libquirc --enable-libuavs3d --enable-libxevd --enable-libzvbi --enable-liboapv --enable-libqrencode --enable-librav1e --enable-libsvtav1 --enable-libvvenc --enable-libwebp --enable-libx264 --enable-libx265 --enable-libxavs2 --enable-libxeve --enable-libxvid --enable-libaom --enable-libjxl --enable-libvpx --enable-mediafoundation --enable-libass --enable-frei0r --enable-libfreetype --enable-libfribidi --enable-libharfbuzz --enable-liblensfun --enable-libvidstab --enable-libvmaf --enable-libzimg --enable-amf --enable-cuda-llvm --enable-cuvid --enable-dxva2 --enable-d3d11va --enable-d3d12va --enable-ffnvcodec --enable-libvpl --enable-nvdec --enable-nvenc --enable-vaapi --enable-libshaderc --enable-vulkan --enable-libplacebo --enable-opencl --enable-libcdio --enable-openal --enable-libgme --enable-libmodplug --enable-libopenmpt --enable-libopencore-amrwb --enable-libmp3lame --enable-libshine --enable-libtheora --enable-libtwolame --enable-libvo-amrwbenc --enable-libcodec2 --enable-libilbc --enable-libgsm --enable-liblc3 --enable-libopencore-amrnb --enable-libopus --enable-libspeex --enable-libvorbis --enable-ladspa --enable-libbs2b --enable-libflite --enable-libmysofa --enable-librubberband --enable-libsoxr --enable-chromaprint --enable-whisper
  libavutil      60. 13.100 / 60. 13.100
  libavcodec     62. 16.100 / 62. 16.100
  libavformat    62.  6.101 / 62.  6.101
  libavdevice    62.  2.100 / 62.  2.100
  libavfilter    11.  9.100 / 11.  9.100
  libswscale      9.  3.100 /  9.  3.100
  libswresample   6.  2.100 /  6.  2.100
Input #0, mov,mp4,m4a,3gp,3g2,mj2, from 'input.mov':
  Metadata:
    major_brand     : qt
    minor_version   : 512
    compatible_brands: qt
    creation_time   : 2025-11-03T15:18:32.000000Z
    encoder         : Blackmagic Design DaVinci Resolve Studio
  Duration: 00:02:07.78, start: 0.000000, bitrate: 259839 kb/s
  Stream #0:0[0x1]: Video: hevc (Rext) (hvc1 / 0x31637668), yuv444p10le(pc, bt709, progressive), 3840x2160 [SAR 1:1 DAR 16:9], 256762 kb/s, 60 fps, 60 tbr, 15360 tbn (default)
    Metadata:
      creation_time   : 2025-11-03T15:18:32.000000Z
      handler_name    : VideoHandler
      vendor_id       :
      encoder         : H.265 4:4:4 10-bit - NVIDIA
      timecode        : 01:00:00:00
  Stream #0:1[0x2]: Audio: pcm_s32le (lpcm / 0x6D63706C), 48000 Hz, stereo, s32, 3072 kb/s (default)
    Metadata:
      creation_time   : 2025-11-03T15:18:32.000000Z
      handler_name    : SoundHandler
      vendor_id       : [0][0][0][0]
  Stream #0:2[0x3](eng): Data: none (tmcd / 0x64636D74) (default)
    Metadata:
      creation_time   : 2025-11-03T15:18:32.000000Z
      handler_name    : TimeCodeHandler
      timecode        : 01:00:00:00
Incompatible pixel format 'yuv444p10le' for codec 'hevc_nvenc', auto-selecting format 'yuv444p10msble'
File 'enhanced_output_10bit444.mp4' already exists. Overwrite? [y/N] y
Stream mapping:
  Stream #0:0 -> #0:0 (hevc (native) -> hevc (hevc_nvenc))
  Stream #0:1 -> #0:1 (pcm_s32le (native) -> aac (native))
Press [q] to stop, [?] for help
Output #0, mp4, to 'enhanced_output_10bit444.mp4':
  Metadata:
    major_brand     : qt
    minor_version   : 512
    compatible_brands: qt
    encoder         : Lavf62.6.101
  Stream #0:0: Video: hevc (Rext) (hev1 / 0x31766568), yuv444p10msble(pc, bt2020nc/bt709/bt709, progressive), 3840x2160 [SAR 1:1 DAR 16:9], q=2-31, 260000 kb/s, 60 fps, 15360 tbn (default)
    Metadata:
      encoder         : Lavc62.16.100 hevc_nvenc
      creation_time   : 2025-11-03T15:18:32.000000Z
      handler_name    : VideoHandler
      vendor_id       :
      timecode        : 01:00:00:00
    Side data:
      CPB properties: bitrate max/min/avg: 260000000/0/260000000 buffer size: 260000000 vbv_delay: N/A
  Stream #0:1: Audio: aac (LC) (mp4a / 0x6134706D), 48000 Hz, stereo, fltp, 128 kb/s (default)
    Metadata:
      encoder         : Lavc62.16.100 aac
      creation_time   : 2025-11-03T15:18:32.000000Z
      handler_name    : SoundHandler
      vendor_id       : [0][0][0][0]
frame=   20 fps=5.5 q=12.0 size=   15104KiB time=00:00:00.28 bitrate=436702.9kbits/s speed=0.0783x elapsed=0:00:03.61
frame=   27 fps=6.5 q=11.0 size=   18688KiB time=00:00:00.40 bitrate=382731.2kbits/s speed=0.0966x elapsed=0:00:04.13
[out#0/mp4 @ 000001f852de4d80] video:4057479KiB audio:2002KiB subtitle:0KiB other streams:0KiB global headers:0KiB muxing overhead: 0.004554%
frame= 7667 fps= 11 q=14.0 Lsize= 4059666KiB time=00:02:07.73 bitrate=260361.0kbits/s speed=0.183x elapsed=0:11:36.36

[aac @ 000001f852e35240] Qavg: 831.910